<svg width="262" height="391" viewBox="0 0 262 391" fill="none" xmlns="http://www.w3.org/2000/svg">
<ellipse cx="55" cy="259.5" rx="188" ry="131.5" fill="#EF5DA8"/>
<ellipse cx="-74" cy="131.5" rx="188" ry="131.5" fill="#EF5DA8"/>
<path d="M71.5002 62.8319L71.5007 62.8324L90.8012 82.5424C91.0107 82.7562 91.1301 83.0485 91.1301 83.3554C91.1301 83.6623 91.0107 83.9546 90.8012 84.1685C90.5921 84.382 90.3108 84.5 90.0197 84.5C89.7287 84.5 89.4473 84.382 89.2382 84.1685L71.0765 65.6181L70.7192 65.2532L70.3619 65.6181L52.2001 84.1685C51.991 84.382 51.7097 84.5 51.4186 84.5C51.1276 84.5 50.8462 84.382 50.6372 84.1685C50.4277 83.9546 50.3082 83.6623 50.3082 83.3554C50.3082 83.0485 50.4277 82.7562 50.6372 82.5424L69.9377 62.8324L69.5805 62.4825L69.9381 62.8319C70.0416 62.726 70.1639 62.6425 70.2978 62.5858C70.4317 62.5291 70.5749 62.5 70.7192 62.5C70.8635 62.5 71.0067 62.5291 71.1405 62.5858C71.2745 62.6425 71.3968 62.726 71.5002 62.8319Z" fill="#5D5FEF" stroke="#5D5FEF"/>
<path d="M71.5002 143.832L71.5007 143.832L90.8012 163.542C91.0107 163.756 91.1301 164.049 91.1301 164.355C91.1301 164.662 91.0107 164.955 90.8012 165.168C90.5921 165.382 90.3108 165.5 90.0197 165.5C89.7287 165.5 89.4473 165.382 89.2382 165.168L71.0765 146.618L70.7192 146.253L70.3619 146.618L52.2001 165.168C51.991 165.382 51.7097 165.5 51.4186 165.5C51.1276 165.5 50.8462 165.382 50.6372 165.168C50.4277 164.955 50.3082 164.662 50.3082 164.355C50.3082 164.049 50.4277 163.756 50.6372 163.542L69.9377 143.832L69.5805 143.483L69.9381 143.832C70.0416 143.726 70.1639 143.643 70.2978 143.586C70.4317 143.529 70.5749 143.5 70.7192 143.5C70.8635 143.5 71.0067 143.529 71.1405 143.586C71.2745 143.643 71.3968 143.726 71.5002 143.832Z" fill="#5D5FEF" stroke="#5D5FEF"/>
<path d="M71.5002 104.832L71.5007 104.832L90.8012 124.542C91.0107 124.756 91.1301 125.049 91.1301 125.355C91.1301 125.662 91.0107 125.955 90.8012 126.168C90.5921 126.382 90.3108 126.5 90.0197 126.5C89.7287 126.5 89.4473 126.382 89.2382 126.168L71.0765 107.618L70.7192 107.253L70.3619 107.618L52.2001 126.168C51.991 126.382 51.7097 126.5 51.4186 126.5C51.1276 126.5 50.8462 126.382 50.6372 126.168C50.4277 125.955 50.3082 125.662 50.3082 125.355C50.3082 125.049 50.4277 124.756 50.6372 124.542L69.9377 104.832L69.5805 104.483L69.9381 104.832C70.0416 104.726 70.1639 104.643 70.2978 104.586C70.4317 104.529 70.5749 104.5 70.7192 104.5C70.8635 104.5 71.0067 104.529 71.1405 104.586C71.2745 104.643 71.3968 104.726 71.5002 104.832Z" fill="#5D5FEF" stroke="#5D5FEF"/>
<path d="M71.5002 187.832L71.5007 187.832L90.8012 207.542C91.0107 207.756 91.1301 208.049 91.1301 208.355C91.1301 208.662 91.0107 208.955 90.8012 209.168C90.5921 209.382 90.3108 209.5 90.0197 209.5C89.7287 209.5 89.4473 209.382 89.2382 209.168L71.0765 190.618L70.7192 190.253L70.3619 190.618L52.2001 209.168C51.991 209.382 51.7097 209.5 51.4186 209.5C51.1276 209.5 50.8462 209.382 50.6372 209.168C50.4277 208.955 50.3082 208.662 50.3082 208.355C50.3082 208.049 50.4277 207.756 50.6372 207.542L69.9377 187.832L69.5805 187.483L69.9381 187.832C70.0416 187.726 70.1639 187.643 70.2978 187.586C70.4317 187.529 70.5749 187.5 70.7192 187.5C70.8635 187.5 71.0067 187.529 71.1405 187.586C71.2745 187.643 71.3968 187.726 71.5002 187.832Z" fill="#5D5FEF" stroke="#5D5FEF"/>
<path d="M145.5 62.8319L145.501 62.8324L164.801 82.5424C165.011 82.7562 165.13 83.0485 165.13 83.3554C165.13 83.6623 165.011 83.9546 164.801 84.1685C164.592 84.382 164.311 84.5 164.02 84.5C163.729 84.5 163.447 84.382 163.238 84.1685L145.076 65.6181L144.719 65.2532L144.362 65.6181L126.2 84.1685C125.991 84.382 125.71 84.5 125.419 84.5C125.128 84.5 124.846 84.382 124.637 84.1685C124.428 83.9546 124.308 83.6623 124.308 83.3554C124.308 83.0485 124.428 82.7562 124.637 82.5424L143.938 62.8324L143.58 62.4825L143.938 62.8319C144.042 62.726 144.164 62.6425 144.298 62.5858C144.432 62.5291 144.575 62.5 144.719 62.5C144.864 62.5 145.007 62.5291 145.141 62.5858C145.274 62.6425 145.397 62.726 145.5 62.8319Z" fill="#5D5FEF" stroke="#5D5FEF"/>
<path d="M145.5 143.832L145.501 143.832L164.801 163.542C165.011 163.756 165.13 164.049 165.13 164.355C165.13 164.662 165.011 164.955 164.801 165.168C164.592 165.382 164.311 165.5 164.02 165.5C163.729 165.5 163.447 165.382 163.238 165.168L145.076 146.618L144.719 146.253L144.362 146.618L126.2 165.168C125.991 165.382 125.71 165.5 125.419 165.5C125.128 165.5 124.846 165.382 124.637 165.168C124.428 164.955 124.308 164.662 124.308 164.355C124.308 164.049 124.428 163.756 124.637 163.542L143.938 143.832L143.58 143.483L143.938 143.832C144.042 143.726 144.164 143.643 144.298 143.586C144.432 143.529 144.575 143.5 144.719 143.5C144.864 143.5 145.007 143.529 145.141 143.586C145.274 143.643 145.397 143.726 145.5 143.832Z" fill="#5D5FEF" stroke="#5D5FEF"/>
<path d="M145.5 104.832L145.501 104.832L164.801 124.542C165.011 124.756 165.13 125.049 165.13 125.355C165.13 125.662 165.011 125.955 164.801 126.168C164.592 126.382 164.311 126.5 164.02 126.5C163.729 126.5 163.447 126.382 163.238 126.168L145.076 107.618L144.719 107.253L144.362 107.618L126.2 126.168C125.991 126.382 125.71 126.5 125.419 126.5C125.128 126.5 124.846 126.382 124.637 126.168C124.428 125.955 124.308 125.662 124.308 125.355C124.308 125.049 124.428 124.756 124.637 124.542L143.938 104.832L143.58 104.483L143.938 104.832C144.042 104.726 144.164 104.643 144.298 104.586C144.432 104.529 144.575 104.5 144.719 104.5C144.864 104.5 145.007 104.529 145.141 104.586C145.274 104.643 145.397 104.726 145.5 104.832Z" fill="#5D5FEF" stroke="#5D5FEF"/>
<path d="M145.5 187.832L145.501 187.832L164.801 207.542C165.011 207.756 165.13 208.049 165.13 208.355C165.13 208.662 165.011 208.955 164.801 209.168C164.592 209.382 164.311 209.5 164.02 209.5C163.729 209.5 163.447 209.382 163.238 209.168L145.076 190.618L144.719 190.253L144.362 190.618L126.2 209.168C125.991 209.382 125.71 209.5 125.419 209.5C125.128 209.5 124.846 209.382 124.637 209.168C124.428 208.955 124.308 208.662 124.308 208.355C124.308 208.049 124.428 207.756 124.637 207.542L143.938 187.832L143.58 187.483L143.938 187.832C144.042 187.726 144.164 187.643 144.298 187.586C144.432 187.529 144.575 187.5 144.719 187.5C144.864 187.5 145.007 187.529 145.141 187.586C145.274 187.643 145.397 187.726 145.5 187.832Z" fill="#5D5FEF" stroke="#5D5FEF"/>
<path d="M219.5 62.8319L219.501 62.8324L238.801 82.5424C239.011 82.7562 239.13 83.0485 239.13 83.3554C239.13 83.6623 239.011 83.9546 238.801 84.1685C238.592 84.382 238.311 84.5 238.02 84.5C237.729 84.5 237.447 84.382 237.238 84.1685L219.076 65.6181L218.719 65.2532L218.362 65.6181L200.2 84.1685C199.991 84.382 199.71 84.5 199.419 84.5C199.128 84.5 198.846 84.382 198.637 84.1685C198.428 83.9546 198.308 83.6623 198.308 83.3554C198.308 83.0485 198.428 82.7562 198.637 82.5424L217.938 62.8324L217.58 62.4825L217.938 62.8319C218.042 62.726 218.164 62.6425 218.298 62.5858C218.432 62.5291 218.575 62.5 218.719 62.5C218.864 62.5 219.007 62.5291 219.141 62.5858C219.274 62.6425 219.397 62.726 219.5 62.8319Z" fill="#5D5FEF" stroke="#5D5FEF"/>
<path d="M219.5 143.832L219.501 143.832L238.801 163.542C239.011 163.756 239.13 164.049 239.13 164.355C239.13 164.662 239.011 164.955 238.801 165.168C238.592 165.382 238.311 165.5 238.02 165.5C237.729 165.5 237.447 165.382 237.238 165.168L219.076 146.618L218.719 146.253L218.362 146.618L200.2 165.168C199.991 165.382 199.71 165.5 199.419 165.5C199.128 165.5 198.846 165.382 198.637 165.168C198.428 164.955 198.308 164.662 198.308 164.355C198.308 164.049 198.428 163.756 198.637 163.542L217.938 143.832L217.58 143.483L217.938 143.832C218.042 143.726 218.164 143.643 218.298 143.586C218.432 143.529 218.575 143.5 218.719 143.5C218.864 143.5 219.007 143.529 219.141 143.586C219.274 143.643 219.397 143.726 219.5 143.832Z" fill="#5D5FEF" stroke="#5D5FEF"/>
<path d="M219.5 104.832L219.501 104.832L238.801 124.542C239.011 124.756 239.13 125.049 239.13 125.355C239.13 125.662 239.011 125.955 238.801 126.168C238.592 126.382 238.311 126.5 238.02 126.5C237.729 126.5 237.447 126.382 237.238 126.168L219.076 107.618L218.719 107.253L218.362 107.618L200.2 126.168C199.991 126.382 199.71 126.5 199.419 126.5C199.128 126.5 198.846 126.382 198.637 126.168C198.428 125.955 198.308 125.662 198.308 125.355C198.308 125.049 198.428 124.756 198.637 124.542L217.938 104.832L217.58 104.483L217.938 104.832C218.042 104.726 218.164 104.643 218.298 104.586C218.432 104.529 218.575 104.5 218.719 104.5C218.864 104.5 219.007 104.529 219.141 104.586C219.274 104.643 219.397 104.726 219.5 104.832Z" fill="#5D5FEF" stroke="#5D5FEF"/>
<path d="M219.5 187.832L219.501 187.832L238.801 207.542C239.011 207.756 239.13 208.049 239.13 208.355C239.13 208.662 239.011 208.955 238.801 209.168C238.592 209.382 238.311 209.5 238.02 209.5C237.729 209.5 237.447 209.382 237.238 209.168L219.076 190.618L218.719 190.253L218.362 190.618L200.2 209.168C199.991 209.382 199.71 209.5 199.419 209.5C199.128 209.5 198.846 209.382 198.637 209.168C198.428 208.955 198.308 208.662 198.308 208.355C198.308 208.049 198.428 207.756 198.637 207.542L217.938 187.832L217.58 187.483L217.938 187.832C218.042 187.726 218.164 187.643 218.298 187.586C218.432 187.529 218.575 187.5 218.719 187.5C218.864 187.5 219.007 187.529 219.141 187.586C219.274 187.643 219.397 187.726 219.5 187.832Z" fill="#5D5FEF" stroke="#5D5FEF"/>
</svg>
