<svg width="149" height="219" viewBox="0 0 149 219" fill="none" xmlns="http://www.w3.org/2000/svg">
<path d="M127.168 26.9376L127.168 26.938C127.274 27.0415 127.357 27.1638 127.414 27.2977C127.471 27.4316 127.5 27.5747 127.5 27.7191C127.5 27.8634 127.471 28.0065 127.414 28.1404C127.357 28.2743 127.274 28.3967 127.168 28.5001L127.168 28.5006L107.458 47.8011C107.244 48.0105 106.951 48.13 106.645 48.13C106.338 48.13 106.045 48.0105 105.832 47.8011C105.618 47.592 105.5 47.3107 105.5 47.0196C105.5 46.7286 105.618 46.4472 105.831 46.2382C105.831 46.2381 105.831 46.2381 105.832 46.2381L124.382 28.0763L124.747 27.7191L124.382 27.3618L105.832 9.2C105.831 9.19999 105.831 9.19998 105.831 9.19997C105.618 8.99089 105.5 8.70957 105.5 8.41852C105.5 8.12744 105.618 7.84612 105.832 7.63703L105.482 7.27978L105.832 7.63703C106.045 7.42759 106.338 7.3081 106.645 7.3081C106.951 7.3081 107.244 7.42759 107.458 7.63703L107.807 7.27978L107.458 7.63703L127.168 26.9376Z" fill="#EF5DA8" stroke="#EF5DA8"/>
<path d="M46.1676 26.9376L46.1681 26.938C46.274 27.0415 46.3575 27.1638 46.4142 27.2977C46.4709 27.4316 46.5 27.5747 46.5 27.7191C46.5 27.8634 46.4709 28.0065 46.4142 28.1404C46.3575 28.2743 46.274 28.3967 46.1681 28.5001L46.1676 28.5006L26.4576 47.8011C26.2438 48.0105 25.9515 48.13 25.6446 48.13C25.3377 48.13 25.0454 48.0105 24.8315 47.8011C24.618 47.592 24.5 47.3107 24.5 47.0196C24.5 46.7286 24.618 46.4472 24.8315 46.2382C24.8315 46.2381 24.8315 46.2381 24.8315 46.2381L43.3819 28.0763L43.7468 27.7191L43.3819 27.3618L24.8315 9.2C24.8315 9.19999 24.8315 9.19998 24.8315 9.19997C24.618 8.99089 24.5 8.70957 24.5 8.41852C24.5 8.12744 24.618 7.84612 24.8315 7.63703L24.4817 7.27978L24.8315 7.63703C25.0454 7.42759 25.3377 7.3081 25.6446 7.3081C25.9515 7.3081 26.2438 7.42759 26.4576 7.63703L26.8075 7.27978L26.4576 7.63703L46.1676 26.9376Z" fill="#EF5DA8" stroke="#EF5DA8"/>
<path d="M85.1676 26.9376L85.1681 26.938C85.274 27.0415 85.3575 27.1638 85.4142 27.2977C85.4709 27.4316 85.5 27.5747 85.5 27.7191C85.5 27.8634 85.4709 28.0065 85.4142 28.1404C85.3575 28.2743 85.274 28.3967 85.1681 28.5001L85.1676 28.5006L65.4576 47.8011C65.2438 48.0105 64.9515 48.13 64.6446 48.13C64.3377 48.13 64.0454 48.0105 63.8315 47.8011C63.618 47.592 63.5 47.3107 63.5 47.0196C63.5 46.7286 63.618 46.4472 63.8315 46.2382C63.8315 46.2381 63.8315 46.2381 63.8315 46.2381L82.3819 28.0763L82.7468 27.7191L82.3819 27.3618L63.8315 9.2C63.8315 9.19999 63.8315 9.19998 63.8315 9.19997C63.618 8.99089 63.5 8.70957 63.5 8.41852C63.5 8.12744 63.618 7.84612 63.8315 7.63703L63.4817 7.27978L63.8315 7.63703C64.0454 7.42759 64.3377 7.3081 64.6446 7.3081C64.9515 7.3081 65.2438 7.42759 65.4576 7.63703L65.8075 7.27978L65.4576 7.63703L85.1676 26.9376Z" fill="#EF5DA8" stroke="#EF5DA8"/>
<path d="M2.16763 26.9376L2.16808 26.938C2.274 27.0415 2.35746 27.1638 2.4142 27.2977C2.47094 27.4316 2.5 27.5747 2.5 27.7191C2.5 27.8634 2.47094 28.0065 2.4142 28.1404C2.35746 28.2743 2.274 28.3967 2.16808 28.5001L2.16763 28.5006L-17.5424 47.8011C-17.7562 48.0105 -18.0485 48.13 -18.3554 48.13C-18.6623 48.13 -18.9546 48.0105 -19.1685 47.8011C-19.382 47.592 -19.5 47.3107 -19.5 47.0196C-19.5 46.7286 -19.382 46.4472 -19.1685 46.2382C-19.1685 46.2381 -19.1685 46.2381 -19.1685 46.2381L-0.618137 28.0763L-0.253218 27.7191L-0.618137 27.3618L-19.1685 9.2C-19.1685 9.19999 -19.1685 9.19998 -19.1685 9.19997C-19.382 8.99089 -19.5 8.70957 -19.5 8.41852C-19.5 8.12744 -19.382 7.84612 -19.1685 7.63703L-19.5183 7.27978L-19.1685 7.63703C-18.9546 7.42759 -18.6623 7.3081 -18.3554 7.3081C-18.0485 7.3081 -17.7562 7.42759 -17.5424 7.63703L-17.1925 7.27978L-17.5424 7.63703L2.16763 26.9376Z" fill="#EF5DA8" stroke="#EF5DA8"/>
<path d="M127.168 100.938L127.168 100.938C127.274 101.041 127.357 101.164 127.414 101.298C127.471 101.432 127.5 101.575 127.5 101.719C127.5 101.863 127.471 102.007 127.414 102.14C127.357 102.274 127.274 102.397 127.168 102.5L127.168 102.501L107.458 121.801C107.244 122.011 106.951 122.13 106.645 122.13C106.338 122.13 106.045 122.011 105.832 121.801C105.618 121.592 105.5 121.311 105.5 121.02C105.5 120.729 105.618 120.447 105.831 120.238C105.831 120.238 105.831 120.238 105.832 120.238L124.382 102.076L124.747 101.719L124.382 101.362L105.832 83.2C105.831 83.2 105.831 83.2 105.831 83.2C105.618 82.9909 105.5 82.7096 105.5 82.4185C105.5 82.1274 105.618 81.8461 105.832 81.637L105.482 81.2798L105.832 81.637C106.045 81.4276 106.338 81.3081 106.645 81.3081C106.951 81.3081 107.244 81.4276 107.458 81.637L107.807 81.2798L107.458 81.637L127.168 100.938Z" fill="#EF5DA8" stroke="#EF5DA8"/>
<path d="M46.1676 100.938L46.1681 100.938C46.274 101.041 46.3575 101.164 46.4142 101.298C46.4709 101.432 46.5 101.575 46.5 101.719C46.5 101.863 46.4709 102.007 46.4142 102.14C46.3575 102.274 46.274 102.397 46.1681 102.5L46.1676 102.501L26.4576 121.801C26.2438 122.011 25.9515 122.13 25.6446 122.13C25.3377 122.13 25.0454 122.011 24.8315 121.801C24.618 121.592 24.5 121.311 24.5 121.02C24.5 120.729 24.618 120.447 24.8315 120.238C24.8315 120.238 24.8315 120.238 24.8315 120.238L43.3819 102.076L43.7468 101.719L43.3819 101.362L24.8315 83.2C24.8315 83.2 24.8315 83.2 24.8315 83.2C24.618 82.9909 24.5 82.7096 24.5 82.4185C24.5 82.1274 24.618 81.8461 24.8315 81.637L24.4817 81.2798L24.8315 81.637C25.0454 81.4276 25.3377 81.3081 25.6446 81.3081C25.9515 81.3081 26.2438 81.4276 26.4576 81.637L26.8075 81.2798L26.4576 81.637L46.1676 100.938Z" fill="#EF5DA8" stroke="#EF5DA8"/>
<path d="M85.1676 100.938L85.1681 100.938C85.274 101.041 85.3575 101.164 85.4142 101.298C85.4709 101.432 85.5 101.575 85.5 101.719C85.5 101.863 85.4709 102.007 85.4142 102.14C85.3575 102.274 85.274 102.397 85.1681 102.5L85.1676 102.501L65.4576 121.801C65.2438 122.011 64.9515 122.13 64.6446 122.13C64.3377 122.13 64.0454 122.011 63.8315 121.801C63.618 121.592 63.5 121.311 63.5 121.02C63.5 120.729 63.618 120.447 63.8315 120.238C63.8315 120.238 63.8315 120.238 63.8315 120.238L82.3819 102.076L82.7468 101.719L82.3819 101.362L63.8315 83.2C63.8315 83.2 63.8315 83.2 63.8315 83.2C63.618 82.9909 63.5 82.7096 63.5 82.4185C63.5 82.1274 63.618 81.8461 63.8315 81.637L63.4817 81.2798L63.8315 81.637C64.0454 81.4276 64.3377 81.3081 64.6446 81.3081C64.9515 81.3081 65.2438 81.4276 65.4576 81.637L65.8075 81.2798L65.4576 81.637L85.1676 100.938Z" fill="#EF5DA8" stroke="#EF5DA8"/>
<path d="M2.16763 100.938L2.16808 100.938C2.274 101.041 2.35746 101.164 2.4142 101.298C2.47094 101.432 2.5 101.575 2.5 101.719C2.5 101.863 2.47094 102.007 2.4142 102.14C2.35746 102.274 2.274 102.397 2.16808 102.5L2.16763 102.501L-17.5424 121.801C-17.7562 122.011 -18.0485 122.13 -18.3554 122.13C-18.6623 122.13 -18.9546 122.011 -19.1685 121.801C-19.382 121.592 -19.5 121.311 -19.5 121.02C-19.5 120.729 -19.382 120.447 -19.1685 120.238C-19.1685 120.238 -19.1685 120.238 -19.1685 120.238L-0.618137 102.076L-0.253218 101.719L-0.618137 101.362L-19.1685 83.2C-19.1685 83.2 -19.1685 83.2 -19.1685 83.2C-19.382 82.9909 -19.5 82.7096 -19.5 82.4185C-19.5 82.1274 -19.382 81.8461 -19.1685 81.637L-19.5183 81.2798L-19.1685 81.637C-18.9546 81.4276 -18.6623 81.3081 -18.3554 81.3081C-18.0485 81.3081 -17.7562 81.4276 -17.5424 81.637L-17.1925 81.2798L-17.5424 81.637L2.16763 100.938Z" fill="#EF5DA8" stroke="#EF5DA8"/>
<path d="M127.168 174.938L127.168 174.938C127.274 175.041 127.357 175.164 127.414 175.298C127.471 175.432 127.5 175.575 127.5 175.719C127.5 175.863 127.471 176.007 127.414 176.14C127.357 176.274 127.274 176.397 127.168 176.5L127.168 176.501L107.458 195.801C107.244 196.011 106.951 196.13 106.645 196.13C106.338 196.13 106.045 196.011 105.832 195.801C105.618 195.592 105.5 195.311 105.5 195.02C105.5 194.729 105.618 194.447 105.831 194.238C105.831 194.238 105.831 194.238 105.832 194.238L124.382 176.076L124.747 175.719L124.382 175.362L105.832 157.2C105.831 157.2 105.831 157.2 105.831 157.2C105.618 156.991 105.5 156.71 105.5 156.419C105.5 156.127 105.618 155.846 105.832 155.637L105.482 155.28L105.832 155.637C106.045 155.428 106.338 155.308 106.645 155.308C106.951 155.308 107.244 155.428 107.458 155.637L107.807 155.28L107.458 155.637L127.168 174.938Z" fill="#EF5DA8" stroke="#EF5DA8"/>
<path d="M46.1676 174.938L46.1681 174.938C46.274 175.041 46.3575 175.164 46.4142 175.298C46.4709 175.432 46.5 175.575 46.5 175.719C46.5 175.863 46.4709 176.007 46.4142 176.14C46.3575 176.274 46.274 176.397 46.1681 176.5L46.1676 176.501L26.4576 195.801C26.2438 196.011 25.9515 196.13 25.6446 196.13C25.3377 196.13 25.0454 196.011 24.8315 195.801C24.618 195.592 24.5 195.311 24.5 195.02C24.5 194.729 24.618 194.447 24.8315 194.238C24.8315 194.238 24.8315 194.238 24.8315 194.238L43.3819 176.076L43.7468 175.719L43.3819 175.362L24.8315 157.2C24.8315 157.2 24.8315 157.2 24.8315 157.2C24.618 156.991 24.5 156.71 24.5 156.419C24.5 156.127 24.618 155.846 24.8315 155.637L24.4817 155.28L24.8315 155.637C25.0454 155.428 25.3377 155.308 25.6446 155.308C25.9515 155.308 26.2438 155.428 26.4576 155.637L26.8075 155.28L26.4576 155.637L46.1676 174.938Z" fill="#EF5DA8" stroke="#EF5DA8"/>
<path d="M85.1676 174.938L85.1681 174.938C85.274 175.041 85.3575 175.164 85.4142 175.298C85.4709 175.432 85.5 175.575 85.5 175.719C85.5 175.863 85.4709 176.007 85.4142 176.14C85.3575 176.274 85.274 176.397 85.1681 176.5L85.1676 176.501L65.4576 195.801C65.2438 196.011 64.9515 196.13 64.6446 196.13C64.3377 196.13 64.0454 196.011 63.8315 195.801C63.618 195.592 63.5 195.311 63.5 195.02C63.5 194.729 63.618 194.447 63.8315 194.238C63.8315 194.238 63.8315 194.238 63.8315 194.238L82.3819 176.076L82.7468 175.719L82.3819 175.362L63.8315 157.2C63.8315 157.2 63.8315 157.2 63.8315 157.2C63.618 156.991 63.5 156.71 63.5 156.419C63.5 156.127 63.618 155.846 63.8315 155.637L63.4817 155.28L63.8315 155.637C64.0454 155.428 64.3377 155.308 64.6446 155.308C64.9515 155.308 65.2438 155.428 65.4576 155.637L65.8075 155.28L65.4576 155.637L85.1676 174.938Z" fill="#EF5DA8" stroke="#EF5DA8"/>
<path d="M2.16763 174.938L2.16808 174.938C2.274 175.041 2.35746 175.164 2.4142 175.298C2.47094 175.432 2.5 175.575 2.5 175.719C2.5 175.863 2.47094 176.007 2.4142 176.14C2.35746 176.274 2.274 176.397 2.16808 176.5L2.16763 176.501L-17.5424 195.801C-17.7562 196.011 -18.0485 196.13 -18.3554 196.13C-18.6623 196.13 -18.9546 196.011 -19.1685 195.801C-19.382 195.592 -19.5 195.311 -19.5 195.02C-19.5 194.729 -19.382 194.447 -19.1685 194.238C-19.1685 194.238 -19.1685 194.238 -19.1685 194.238L-0.618137 176.076L-0.253218 175.719L-0.618137 175.362L-19.1685 157.2C-19.1685 157.2 -19.1685 157.2 -19.1685 157.2C-19.382 156.991 -19.5 156.71 -19.5 156.419C-19.5 156.127 -19.382 155.846 -19.1685 155.637L-19.5183 155.28L-19.1685 155.637C-18.9546 155.428 -18.6623 155.308 -18.3554 155.308C-18.0485 155.308 -17.7562 155.428 -17.5424 155.637L-17.1925 155.28L-17.5424 155.637L2.16763 174.938Z" fill="#EF5DA8" stroke="#EF5DA8"/>
</svg>
