<svg width="375" height="8" viewBox="0 0 375 8" fill="none" xmlns="http://www.w3.org/2000/svg">
<g clip-path="url(#clip0_19_1188)">
<line x1="197.707" y1="-1.29289" x2="186.707" y2="9.70711" stroke="#337E93" stroke-width="2"/>
<line x1="203.707" y1="-1.29289" x2="192.707" y2="9.70711" stroke="#337E93" stroke-width="2"/>
<line x1="209.707" y1="-1.29289" x2="198.707" y2="9.70711" stroke="#337E93" stroke-width="2"/>
<line x1="215.707" y1="-1.29289" x2="204.707" y2="9.70711" stroke="#337E93" stroke-width="2"/>
<line x1="221.707" y1="-1.29289" x2="210.707" y2="9.70711" stroke="#337E93" stroke-width="2"/>
<line x1="227.707" y1="-1.29289" x2="216.707" y2="9.70711" stroke="#337E93" stroke-width="2"/>
<line x1="233.707" y1="-1.29289" x2="222.707" y2="9.70711" stroke="#337E93" stroke-width="2"/>
<line x1="239.707" y1="-1.29289" x2="228.707" y2="9.70711" stroke="#337E93" stroke-width="2"/>
<line x1="245.707" y1="-1.29289" x2="234.707" y2="9.70711" stroke="#337E93" stroke-width="2"/>
<line x1="251.707" y1="-1.29289" x2="240.707" y2="9.70711" stroke="#337E93" stroke-width="2"/>
<line x1="257.707" y1="-1.29289" x2="246.707" y2="9.70711" stroke="#337E93" stroke-width="2"/>
<line x1="263.707" y1="-1.29289" x2="252.707" y2="9.70711" stroke="#337E93" stroke-width="2"/>
<line x1="269.707" y1="-1.29289" x2="258.707" y2="9.70711" stroke="#337E93" stroke-width="2"/>
<line x1="275.707" y1="-1.29289" x2="264.707" y2="9.70711" stroke="#337E93" stroke-width="2"/>
<line x1="281.707" y1="-1.29289" x2="270.707" y2="9.70711" stroke="#337E93" stroke-width="2"/>
<line x1="287.707" y1="-1.29289" x2="276.707" y2="9.70711" stroke="#337E93" stroke-width="2"/>
<line x1="293.707" y1="-1.29289" x2="282.707" y2="9.70711" stroke="#337E93" stroke-width="2"/>
<line x1="299.707" y1="-1.29289" x2="288.707" y2="9.70711" stroke="#337E93" stroke-width="2"/>
<line x1="305.707" y1="-1.29289" x2="294.707" y2="9.70711" stroke="#337E93" stroke-width="2"/>
<line x1="311.707" y1="-1.29289" x2="300.707" y2="9.70711" stroke="#337E93" stroke-width="2"/>
<line x1="317.707" y1="-1.29289" x2="306.707" y2="9.70711" stroke="#337E93" stroke-width="2"/>
<line x1="323.707" y1="-1.29289" x2="312.707" y2="9.70711" stroke="#337E93" stroke-width="2"/>
<line x1="329.707" y1="-1.29289" x2="318.707" y2="9.70711" stroke="#337E93" stroke-width="2"/>
<line x1="335.707" y1="-1.29289" x2="324.707" y2="9.70711" stroke="#337E93" stroke-width="2"/>
<line x1="341.707" y1="-1.29289" x2="330.707" y2="9.70711" stroke="#337E93" stroke-width="2"/>
<line x1="347.707" y1="-1.29289" x2="336.707" y2="9.70711" stroke="#337E93" stroke-width="2"/>
<line x1="353.707" y1="-1.29289" x2="342.707" y2="9.70711" stroke="#337E93" stroke-width="2"/>
<line x1="359.707" y1="-1.29289" x2="348.707" y2="9.70711" stroke="#337E93" stroke-width="2"/>
<line x1="365.707" y1="-1.29289" x2="354.707" y2="9.70711" stroke="#337E93" stroke-width="2"/>
<line x1="371.707" y1="-1.29289" x2="360.707" y2="9.70711" stroke="#337E93" stroke-width="2"/>
<line x1="377.707" y1="-1.29289" x2="366.707" y2="9.70711" stroke="#337E93" stroke-width="2"/>
<line x1="383.707" y1="-1.29289" x2="372.707" y2="9.70711" stroke="#337E93" stroke-width="2"/>
<line x1="-0.292893" y1="-1.29289" x2="-11.2929" y2="9.70711" stroke="#337E93" stroke-width="2"/>
<line x1="5.70711" y1="-1.29289" x2="-5.29289" y2="9.70711" stroke="#337E93" stroke-width="2"/>
<line x1="11.7071" y1="-1.29289" x2="0.707107" y2="9.70711" stroke="#337E93" stroke-width="2"/>
<line x1="17.7071" y1="-1.29289" x2="6.70711" y2="9.70711" stroke="#337E93" stroke-width="2"/>
<line x1="23.7071" y1="-1.29289" x2="12.7071" y2="9.70711" stroke="#337E93" stroke-width="2"/>
<line x1="29.7071" y1="-1.29289" x2="18.7071" y2="9.70711" stroke="#337E93" stroke-width="2"/>
<line x1="35.7071" y1="-1.29289" x2="24.7071" y2="9.70711" stroke="#337E93" stroke-width="2"/>
<line x1="41.7071" y1="-1.29289" x2="30.7071" y2="9.70711" stroke="#337E93" stroke-width="2"/>
<line x1="47.7071" y1="-1.29289" x2="36.7071" y2="9.70711" stroke="#337E93" stroke-width="2"/>
<line x1="53.7071" y1="-1.29289" x2="42.7071" y2="9.70711" stroke="#337E93" stroke-width="2"/>
<line x1="59.7071" y1="-1.29289" x2="48.7071" y2="9.70711" stroke="#337E93" stroke-width="2"/>
<line x1="65.7071" y1="-1.29289" x2="54.7071" y2="9.70711" stroke="#337E93" stroke-width="2"/>
<line x1="71.7071" y1="-1.29289" x2="60.7071" y2="9.70711" stroke="#337E93" stroke-width="2"/>
<line x1="77.7071" y1="-1.29289" x2="66.7071" y2="9.70711" stroke="#337E93" stroke-width="2"/>
<line x1="83.7071" y1="-1.29289" x2="72.7071" y2="9.70711" stroke="#337E93" stroke-width="2"/>
<line x1="89.7071" y1="-1.29289" x2="78.7071" y2="9.70711" stroke="#337E93" stroke-width="2"/>
<line x1="95.7071" y1="-1.29289" x2="84.7071" y2="9.70711" stroke="#337E93" stroke-width="2"/>
<line x1="101.707" y1="-1.29289" x2="90.7071" y2="9.70711" stroke="#337E93" stroke-width="2"/>
<line x1="107.707" y1="-1.29289" x2="96.7071" y2="9.70711" stroke="#337E93" stroke-width="2"/>
<line x1="113.707" y1="-1.29289" x2="102.707" y2="9.70711" stroke="#337E93" stroke-width="2"/>
<line x1="119.707" y1="-1.29289" x2="108.707" y2="9.70711" stroke="#337E93" stroke-width="2"/>
<line x1="125.707" y1="-1.29289" x2="114.707" y2="9.70711" stroke="#337E93" stroke-width="2"/>
<line x1="131.707" y1="-1.29289" x2="120.707" y2="9.70711" stroke="#337E93" stroke-width="2"/>
<line x1="137.707" y1="-1.29289" x2="126.707" y2="9.70711" stroke="#337E93" stroke-width="2"/>
<line x1="143.707" y1="-1.29289" x2="132.707" y2="9.70711" stroke="#337E93" stroke-width="2"/>
<line x1="149.707" y1="-1.29289" x2="138.707" y2="9.70711" stroke="#337E93" stroke-width="2"/>
<line x1="155.707" y1="-1.29289" x2="144.707" y2="9.70711" stroke="#337E93" stroke-width="2"/>
<line x1="161.707" y1="-1.29289" x2="150.707" y2="9.70711" stroke="#337E93" stroke-width="2"/>
<line x1="167.707" y1="-1.29289" x2="156.707" y2="9.70711" stroke="#337E93" stroke-width="2"/>
<line x1="173.707" y1="-1.29289" x2="162.707" y2="9.70711" stroke="#337E93" stroke-width="2"/>
<line x1="179.707" y1="-1.29289" x2="168.707" y2="9.70711" stroke="#337E93" stroke-width="2"/>
<line x1="185.707" y1="-1.29289" x2="174.707" y2="9.70711" stroke="#337E93" stroke-width="2"/>
<line x1="191.707" y1="-1.29289" x2="180.707" y2="9.70711" stroke="#337E93" stroke-width="2"/>
</g>
<defs>
<clipPath id="clip0_19_1188">
<rect width="980" height="8" fill="white" transform="translate(-302)"/>
</clipPath>
</defs>
</svg>
